<?xml version="1.0" encoding="UTF-8"?>
<svg xmlns="http://www.w3.org/2000/svg" width="150" height="43" viewBox="528.066406 416.695312 863.867188 246.613282" preserveAspectRatio="xMidYMid meet" role="img" aria-label="GoldPlus logo">
  <title>GoldPlus</title>
  <g fill="#000000">
<path fill-rule="nonzero" fill="rgb(0%, 0%, 0%)" fill-opacity="1" d="M 766.125 502.25 C 751.992188 502.25 738.355469 512.890625 738.355469 532.683594 C 738.355469 552.472656 751.992188 563.949219 766.125 563.949219 C 780.429688 563.949219 793.898438 552.804688 793.898438 533.015625 C 793.898438 513.390625 780.429688 502.25 766.125 502.25 M 762.136719 485.785156 C 777.101562 485.785156 788.246094 492.769531 793.898438 500.585938 L 793.898438 487.28125 L 813.023438 487.28125 L 813.023438 580.410156 C 813.023438 605.359375 796.894531 624.148438 768.289062 624.148438 C 743.84375 624.148438 725.714844 612.007812 723.386719 591.71875 L 742.179688 591.71875 C 745.007812 601.199219 755.152344 607.683594 768.289062 607.683594 C 782.921875 607.683594 793.898438 598.703125 793.898438 580.410156 L 793.898438 565.109375 C 788.078125 572.925781 777.101562 580.410156 762.136719 580.410156 C 738.019531 580.410156 718.894531 560.953125 718.894531 532.683594 C 718.894531 504.410156 738.019531 485.785156 762.136719 485.785156 "/>
<path fill-rule="nonzero" fill="rgb(0%, 0%, 0%)" fill-opacity="1" d="M 873.558594 563.949219 C 887.695312 563.949219 901.664062 553.800781 901.664062 533.015625 C 901.664062 512.226562 888.195312 502.25 874.058594 502.25 C 859.757812 502.25 846.953125 512.226562 846.953125 533.015625 C 846.953125 553.800781 859.257812 563.949219 873.558594 563.949219 M 873.558594 580.410156 C 847.453125 580.410156 827.660156 561.785156 827.660156 533.015625 C 827.660156 504.246094 848.285156 485.785156 874.394531 485.785156 C 900.5 485.785156 921.125 504.246094 921.125 533.015625 C 921.125 561.785156 899.835938 580.410156 873.558594 580.410156 "/>
<path fill-rule="nonzero" fill="rgb(0%, 0%, 0%)" fill-opacity="1" d="M 935.757812 455.851562 L 954.71875 455.851562 L 954.71875 578.914062 L 935.757812 578.914062 Z M 935.757812 455.851562 "/>
<path fill-rule="nonzero" fill="rgb(0%, 0%, 0%)" fill-opacity="1" d="M 1016.414062 502.25 C 1002.28125 502.25 988.640625 512.890625 988.640625 532.683594 C 988.640625 552.472656 1002.28125 563.949219 1016.414062 563.949219 C 1030.71875 563.949219 1044.1875 552.804688 1044.1875 533.015625 C 1044.1875 513.390625 1030.71875 502.25 1016.414062 502.25 M 1012.589844 485.785156 C 1024.5625 485.785156 1037.203125 491.4375 1044.1875 500.085938 L 1044.1875 455.851562 L 1063.3125 455.851562 L 1063.3125 578.914062 L 1044.1875 578.914062 L 1044.1875 565.109375 C 1038.367188 573.429688 1027.390625 580.410156 1012.421875 580.410156 C 988.308594 580.410156 969.183594 560.953125 969.183594 532.683594 C 969.183594 504.410156 988.308594 485.785156 1012.589844 485.785156 "/>
<path fill-rule="nonzero" fill="rgb(0%, 0%, 0%)" fill-opacity="1" d="M 1130.167969 496.925781 C 1111.707031 496.925781 1096.410156 510.894531 1096.410156 533.511719 C 1096.410156 556.132812 1111.707031 570.101562 1130.167969 570.101562 C 1149.292969 570.101562 1163.925781 556.296875 1163.925781 533.347656 C 1163.925781 510.230469 1149.292969 496.925781 1130.167969 496.925781 M 1132.496094 486.78125 C 1157.273438 486.78125 1175.734375 504.90625 1175.734375 533.347656 C 1175.734375 561.785156 1157.273438 580.246094 1132.496094 580.246094 C 1114.367188 580.246094 1101.730469 570.265625 1096.410156 558.957031 L 1096.410156 621.820312 L 1084.933594 621.820312 L 1084.933594 488.113281 L 1096.410156 488.113281 L 1096.410156 508.066406 C 1101.730469 496.59375 1114.367188 486.78125 1132.496094 486.78125 "/>
<path fill-rule="nonzero" fill="rgb(0%, 0%, 0%)" fill-opacity="1" d="M 1193.03125 455.851562 L 1204.671875 455.851562 L 1204.671875 578.914062 L 1193.03125 578.914062 Z M 1193.03125 455.851562 "/>
<path fill-rule="nonzero" fill="rgb(0%, 0%, 0%)" fill-opacity="1" d="M 1305.617188 578.914062 L 1293.972656 578.914062 L 1293.972656 562.949219 C 1288.488281 574.421875 1276.511719 580.410156 1263.042969 580.410156 C 1242.421875 580.410156 1226.125 567.773438 1226.125 541.164062 L 1226.125 488.113281 L 1237.601562 488.113281 L 1237.601562 539.832031 C 1237.601562 559.957031 1248.574219 570.265625 1265.203125 570.265625 C 1282.167969 570.265625 1293.972656 559.625 1293.972656 537.503906 L 1293.972656 488.113281 L 1305.617188 488.113281 Z M 1305.617188 578.914062 "/>
<path fill-rule="nonzero" fill="rgb(0%, 0%, 0%)" fill-opacity="1" d="M 1359.335938 580.246094 C 1338.714844 580.246094 1324.246094 569.933594 1322.746094 553.304688 L 1334.722656 553.304688 C 1335.71875 563.28125 1344.367188 570.433594 1359.167969 570.433594 C 1372.140625 570.433594 1379.457031 563.449219 1379.457031 554.800781 C 1379.457031 532.351562 1324.910156 545.488281 1324.910156 511.398438 C 1324.910156 497.925781 1337.714844 486.78125 1356.839844 486.78125 C 1376.296875 486.78125 1389.105469 497.09375 1390.101562 514.554688 L 1378.460938 514.554688 C 1377.796875 504.410156 1370.3125 496.757812 1356.507812 496.757812 C 1344.367188 496.757812 1336.71875 503.246094 1336.71875 511.226562 C 1336.71875 535.84375 1390.433594 522.707031 1390.933594 554.800781 C 1390.933594 569.433594 1378.128906 580.246094 1359.335938 580.246094 "/>
<path fill-rule="nonzero" fill="rgb(0%, 0%, 0%)" fill-opacity="1" d="M 682.273438 492.339844 L 682.144531 484.851562 L 648.382812 484.851562 C 648.152344 489.140625 648.023438 493.441406 647.730469 497.726562 C 647.023438 508.082031 641.851562 518.003906 634.238281 524.96875 C 626.480469 532.058594 616.199219 536.101562 605.683594 536.101562 C 582.636719 536.101562 563.890625 517.351562 563.890625 494.308594 C 563.890625 471.265625 582.636719 452.519531 605.683594 452.519531 L 613.300781 452.519531 L 613.300781 417.695312 L 605.683594 417.695312 C 563.4375 417.695312 529.066406 452.0625 529.066406 494.308594 C 529.066406 536.554688 563.4375 570.925781 605.683594 570.925781 C 647.925781 570.925781 682.296875 536.554688 682.296875 494.308594 C 682.296875 493.644531 682.285156 492.992188 682.273438 492.339844 "/>
<path fill-rule="nonzero" fill="rgb(0%, 0%, 0%)" fill-opacity="1" d="M 641.667969 575.96875 L 641.667969 586.589844 C 641.667969 606.4375 625.523438 622.582031 605.679688 622.582031 C 585.832031 622.582031 569.6875 606.4375 569.6875 586.589844 L 569.6875 575.96875 L 529.960938 575.96875 L 529.960938 586.589844 C 529.960938 628.339844 563.925781 662.308594 605.679688 662.308594 C 647.425781 662.308594 681.394531 628.339844 681.394531 586.589844 L 681.394531 575.96875 Z M 641.667969 575.96875 "/>
<path fill-rule="nonzero" fill="rgb(0%, 0%, 0%)" fill-opacity="1" d="M 649.183594 468.398438 L 634.054688 468.398438 L 634.054688 451.710938 L 611.816406 451.710938 L 611.816406 468.398438 L 596.6875 468.398438 L 596.6875 487.515625 L 611.816406 487.515625 L 611.816406 504.207031 L 634.054688 504.207031 L 634.054688 487.515625 L 649.183594 487.515625 Z M 649.183594 468.398438 "/>
  </g>
</svg>
