<svg width="63" height="20" viewBox="0 0 63 20" fill="none" xmlns="http://www.w3.org/2000/svg">
<g id="Visa_2021 1" clip-path="url(#clip0_20708_12958)">
<path id="path3789" d="M40.9738 0.0308228C36.5542 0.0308228 32.6046 2.29554 32.6046 6.47978C32.6046 11.2783 39.6094 11.6098 39.6094 14.0204C39.6094 15.0354 38.4328 15.944 36.4232 15.944C33.5711 15.944 31.4395 14.6744 31.4395 14.6744L30.5275 18.8968C30.5275 18.8968 32.983 19.9692 36.2432 19.9692C41.0753 19.9692 44.8776 17.5933 44.8776 13.3375C44.8776 8.267 37.8436 7.94542 37.8436 5.70793C37.8436 4.9128 38.8095 4.04159 40.8133 4.04159C43.0743 4.04159 44.9189 4.96493 44.9189 4.96493L45.8115 0.886837C45.8115 0.886837 43.8044 0.0308228 40.9738 0.0308228ZM0.53817 0.338604L0.431152 0.954164C0.431152 0.954164 2.29051 1.29058 3.96517 1.96166C6.12143 2.7312 6.27503 3.17918 6.63818 4.57058L10.5954 19.6518H15.9001L24.0723 0.338604H18.7798L13.5287 13.4698L11.3859 2.33918C11.1894 1.06529 10.194 0.338604 8.97554 0.338604H0.53817ZM26.2005 0.338604L22.0487 19.6518H27.0956L31.2328 0.338604H26.2005ZM54.3486 0.338604C53.1316 0.338604 52.4868 0.982736 52.0137 2.10834L44.6197 19.6518H49.9122L50.9362 16.7279H57.384L58.0067 19.6518H62.6765L58.6026 0.338604H54.3486ZM55.0369 5.55644L56.6057 12.8037H52.4028L55.0369 5.55644Z" fill="white"/>
</g>
<defs>
<clipPath id="clip0_20708_12958">
<rect width="62.3077" height="20" fill="white" transform="translate(0.400024)"/>
</clipPath>
</defs>
</svg>
